<svg width="1095" height="678" viewBox="0 0 1095 678" fill="none" xmlns="http://www.w3.org/2000/svg">
<path opacity="0.9" fill-rule="evenodd" clip-rule="evenodd" d="M108.604 37.2183C118.874 37.2183 127.207 28.8875 127.207 18.6126C127.207 8.33082 118.874 0 108.604 0C98.3351 0 90.002 8.33082 90.002 18.6126C90.002 28.8875 98.3351 37.2183 108.604 37.2183ZM898.378 483.407H997.753C1051.24 483.407 1095 527.19 1095 580.7C1095 634.217 1051.24 678 997.753 678H157.461C70.859 678 0 607.102 0 520.447C0 433.791 70.859 362.894 157.461 362.894C194.084 362.894 224.044 332.918 224.044 296.281C224.044 259.638 194.084 229.662 157.461 229.662H77.3312C39.2643 229.662 8.1142 198.495 8.1142 160.401C8.1142 122.313 39.2643 91.1461 77.3312 91.1461H178.656C193.482 91.1461 205.605 79.0093 205.605 64.1822C205.605 49.3483 193.482 37.2183 178.656 37.2183H160.799C150.571 37.2183 142.197 28.8464 142.197 18.6126C142.197 8.37189 150.571 0 160.799 0H227.738C227.738 0 253.319 0 278.004 0C302.688 0 305.439 29.175 367.787 29.175C464.172 29.175 415.979 29.175 512.365 29.175C525.713 29.175 536.639 40.107 536.639 53.4555C536.639 66.8108 525.713 77.7429 512.365 77.7429H489.062C469.721 77.7429 453.896 93.5763 453.896 112.921C453.896 132.273 469.721 148.106 489.062 148.106H559.203C653.925 148.106 667.308 172.873 683.892 222.132C700.483 271.392 786.64 275.362 786.64 275.362H904.439C933.585 275.362 957.435 299.225 957.435 328.386C957.435 357.548 933.592 381.411 904.439 381.411H898.378C870.347 381.411 847.407 404.356 847.407 432.409C847.407 460.454 870.347 483.407 898.378 483.407Z" fill="#F7F8FA"/>
<path fill-rule="evenodd" clip-rule="evenodd" d="M188.172 597.473C187.297 597.727 186.472 598.078 185.703 598.523C184.914 598.98 184.191 599.527 183.539 600.156C183.414 600.277 183.222 600.297 183.082 600.211L180.156 598.523L180.14 598.512C179.972 598.422 179.781 598.406 179.605 598.453C179.425 598.5 179.265 598.617 179.164 598.789L179.152 598.809L177.097 602.371C176.996 602.543 176.976 602.742 177.027 602.922C177.074 603.102 177.191 603.262 177.363 603.363L177.382 603.375L180.285 605.051C180.433 605.137 180.504 605.312 180.464 605.477C180.359 605.906 180.277 606.352 180.218 606.805C180.168 607.246 180.14 607.699 180.14 608.16C180.14 608.621 180.168 609.074 180.218 609.516C180.277 609.973 180.359 610.414 180.464 610.848C180.507 611.023 180.422 611.207 180.261 611.285L177.363 612.957V612.961C177.191 613.059 177.074 613.219 177.027 613.398C176.976 613.582 176.996 613.777 177.097 613.949L179.164 617.535C179.265 617.707 179.425 617.82 179.605 617.871C179.785 617.918 179.984 617.898 180.156 617.801L180.175 617.789L183.082 616.109C183.234 616.023 183.418 616.051 183.539 616.168C184.191 616.793 184.914 617.344 185.703 617.797C186.476 618.246 187.308 618.602 188.187 618.852C188.359 618.902 188.468 619.055 188.468 619.227V622.598C188.468 622.797 188.55 622.977 188.679 623.109C188.812 623.238 188.992 623.32 189.191 623.32H193.332C193.531 623.32 193.707 623.238 193.839 623.109C193.972 622.977 194.054 622.797 194.054 622.598V619.227C194.054 619.043 194.183 618.891 194.351 618.848C195.222 618.598 196.05 618.242 196.82 617.797C197.605 617.344 198.332 616.793 198.984 616.168C199.117 616.039 199.316 616.027 199.464 616.125L202.367 617.801C202.539 617.898 202.738 617.918 202.914 617.871C203.097 617.82 203.257 617.707 203.355 617.535L203.371 617.516L205.425 613.949C205.527 613.777 205.547 613.578 205.5 613.398C205.449 613.219 205.332 613.059 205.164 612.961L202.242 611.273C202.089 611.184 202.019 611.008 202.058 610.848C202.164 610.414 202.246 609.973 202.3 609.516C202.355 609.074 202.382 608.621 202.382 608.16C202.382 607.699 202.355 607.246 202.3 606.805C202.246 606.352 202.164 605.906 202.058 605.477C202.011 605.297 202.101 605.117 202.261 605.039L205.164 603.363C205.332 603.266 205.449 603.102 205.5 602.922C205.547 602.742 205.527 602.543 205.425 602.371L205.414 602.352L203.359 598.789H203.355C203.257 598.617 203.097 598.5 202.914 598.453C202.738 598.402 202.539 598.422 202.367 598.52V598.523L199.441 600.211C199.289 600.301 199.093 600.27 198.972 600.148C198.328 599.523 197.605 598.977 196.816 598.523C196.047 598.078 195.211 597.723 194.336 597.469C194.164 597.422 194.054 597.266 194.054 597.098V593.723C194.054 593.523 193.972 593.344 193.839 593.215C193.707 593.082 193.531 593 193.332 593H189.191C188.992 593 188.812 593.082 188.679 593.215C188.55 593.344 188.468 593.523 188.468 593.723V597.098C188.468 597.281 188.339 597.434 188.172 597.473ZM186.812 603.711C187.949 602.57 189.523 601.867 191.261 601.867C193 601.867 194.57 602.57 195.711 603.711C196.851 604.852 197.554 606.422 197.554 608.16C197.554 609.898 196.851 611.473 195.711 612.609C194.57 613.75 193 614.453 191.261 614.453C189.523 614.453 187.949 613.75 186.812 612.609C185.672 611.473 184.968 609.898 184.968 608.16C184.968 606.422 185.672 604.852 186.812 603.711Z" fill="#002D72"/>
<path fill-rule="evenodd" clip-rule="evenodd" d="M482.777 42.0781C482.777 41.4844 482.293 41 481.699 41C481.102 41 480.621 41.4844 480.621 42.0781V44.6172H478.082C477.484 44.6172 477 45.1016 477 45.6953C477 46.293 477.484 46.7773 478.082 46.7773H480.621V49.3164C480.621 49.9102 481.102 50.3945 481.699 50.3945C482.293 50.3945 482.777 49.9102 482.777 49.3164V46.7773H485.316C485.914 46.7773 486.395 46.293 486.395 45.6953C486.395 45.1016 485.914 44.6172 485.316 44.6172H482.777V42.0781Z" fill="#002D72"/>
<path fill-rule="evenodd" clip-rule="evenodd" d="M357.883 303.055C357.883 302.461 357.398 301.977 356.805 301.977C356.207 301.977 355.727 302.461 355.727 303.055V305.594H353.188C352.59 305.594 352.105 306.078 352.105 306.672C352.105 307.27 352.59 307.754 353.188 307.754H355.727V310.289C355.727 310.887 356.207 311.371 356.805 311.371C357.398 311.371 357.883 310.887 357.883 310.289V307.754H360.422C361.016 307.754 361.5 307.27 361.5 306.672C361.5 306.078 361.016 305.594 360.422 305.594H357.883V303.055Z" fill="#002D72"/>
<path fill-rule="evenodd" clip-rule="evenodd" d="M307.777 123.402C307.777 122.809 307.293 122.324 306.695 122.324C306.102 122.324 305.617 122.809 305.617 123.402V125.941H303.078C302.484 125.941 302 126.422 302 127.02C302 127.617 302.484 128.098 303.078 128.098H305.617V130.637C305.617 131.234 306.102 131.719 306.695 131.719C307.293 131.719 307.777 131.234 307.777 130.637V128.098H310.312C310.91 128.098 311.395 127.617 311.395 127.02C311.395 126.422 310.91 125.941 310.312 125.941H307.777V123.402Z" fill="#002D72"/>
<path fill-rule="evenodd" clip-rule="evenodd" d="M715.315 359.753C713.452 360.548 711.642 361.458 709.894 362.467C708.115 363.499 706.412 364.63 704.785 365.853C703.159 367.083 701.601 368.413 700.128 369.835C700.074 369.888 700.006 369.919 699.929 369.927C699.853 369.934 699.769 369.927 699.708 369.888C695.394 367.389 691.064 364.905 686.758 362.398C686.246 362.123 685.697 361.955 685.139 361.893C684.567 361.825 683.979 361.871 683.429 362.016C682.864 362.169 682.329 362.428 681.848 362.795C681.39 363.147 680.993 363.59 680.688 364.118C677.557 369.193 674.587 374.689 671.594 379.871C671.296 380.406 671.113 380.972 671.037 381.552C670.96 382.149 671.006 382.745 671.151 383.31C671.304 383.884 671.571 384.426 671.93 384.9C672.281 385.359 672.732 385.756 673.251 386.062C677.382 388.615 681.864 391.038 686.086 393.484C686.155 393.514 686.201 393.576 686.231 393.644C686.262 393.713 686.269 393.797 686.254 393.874L685.956 395.066L685.972 395.074C685.842 395.662 685.72 396.251 685.613 396.847C685.422 397.879 685.269 398.888 685.147 399.881C685.032 400.867 684.941 401.876 684.88 402.924C684.811 403.971 684.78 404.995 684.78 406.004C684.78 406.997 684.811 408.022 684.88 409.069C684.941 410.116 685.032 411.133 685.147 412.119C685.269 413.112 685.422 414.121 685.613 415.145C685.796 416.162 686.017 417.163 686.254 418.126C686.269 418.203 686.262 418.287 686.231 418.356C686.193 418.432 686.132 418.501 686.071 418.531C681.36 421.054 676.572 424.019 671.907 426.718L672.075 426.916L671.93 427.1C671.571 427.574 671.304 428.124 671.151 428.69C671.006 429.255 670.96 429.851 671.037 430.448C671.113 431.021 671.296 431.602 671.602 432.122L681.367 449.059L681.551 448.952C681.642 449.036 681.749 449.121 681.848 449.197C682.329 449.564 682.864 449.831 683.429 449.984C683.994 450.137 684.597 450.175 685.193 450.099C685.758 450.03 686.308 449.847 686.819 449.564C691.095 447.294 695.493 444.55 699.715 442.112C699.777 442.073 699.853 442.066 699.929 442.073C700.006 442.081 700.082 442.119 700.135 442.165C701.609 443.587 703.167 444.924 704.793 446.147C706.412 447.37 708.115 448.509 709.894 449.533C711.65 450.542 713.475 451.459 715.353 452.262C717.216 453.057 719.14 453.73 721.103 454.303C721.179 454.318 721.248 454.364 721.286 454.425C721.339 454.486 721.37 454.57 721.362 454.639V469.475C721.362 470.079 721.484 470.667 721.706 471.195C721.935 471.753 722.271 472.25 722.691 472.67C723.111 473.083 723.607 473.419 724.157 473.648C724.691 473.878 725.279 474 725.882 474H744.063C744.666 474 745.254 473.878 745.788 473.648C746.338 473.419 746.834 473.083 747.254 472.67C747.666 472.25 748.002 471.753 748.232 471.195C748.461 470.667 748.583 470.079 748.583 469.475V454.639C748.583 454.555 748.606 454.471 748.651 454.417C748.697 454.364 748.766 454.31 748.858 454.295L748.911 454.272C750.889 453.699 752.798 453.026 754.622 452.247C756.493 451.444 758.303 450.542 760.051 449.533C761.83 448.509 763.533 447.37 765.152 446.147C766.778 444.917 768.336 443.587 769.809 442.165C769.871 442.104 769.947 442.073 770.023 442.066C770.1 442.058 770.184 442.073 770.252 442.127L783.08 449.541C783.607 449.839 784.179 450.03 784.745 450.099C785.348 450.175 785.943 450.137 786.508 449.984C787.073 449.831 787.615 449.564 788.089 449.197C788.539 448.861 788.936 448.433 789.234 447.913C792.609 442.486 795.785 436.547 799 430.975L798.824 430.876C798.863 430.73 798.885 430.585 798.901 430.44C798.985 429.844 798.947 429.255 798.786 428.69C798.641 428.116 798.374 427.574 798.007 427.1C797.664 426.641 797.213 426.244 796.686 425.938L783.859 418.524C783.79 418.486 783.744 418.424 783.714 418.356C783.676 418.279 783.676 418.195 783.691 418.119L784.019 416.766L784.004 416.758C784.126 416.231 784.225 415.688 784.325 415.153C784.515 414.121 784.668 413.112 784.798 412.119C784.912 411.133 785.004 410.116 785.065 409.069C785.134 408.022 785.164 406.997 785.164 406.004C785.164 404.995 785.134 403.978 785.065 402.931C785.004 401.884 784.912 400.867 784.798 399.874C784.668 398.895 784.515 397.886 784.325 396.847C784.141 395.83 783.928 394.837 783.691 393.874C783.668 393.797 783.676 393.713 783.714 393.637C783.752 393.56 783.805 393.499 783.882 393.469L796.694 386.062C797.221 385.749 797.671 385.351 798.007 384.893C798.374 384.419 798.641 383.876 798.786 383.31C798.947 382.745 798.985 382.149 798.901 381.552C798.832 380.994 798.656 380.436 798.366 379.917C795.312 374.253 791.815 368.543 788.578 362.941L788.394 363.048C788.303 362.964 788.196 362.879 788.089 362.795C787.615 362.428 787.073 362.169 786.508 362.016C785.943 361.863 785.348 361.825 784.745 361.901C784.172 361.97 783.599 362.153 783.088 362.451L782.133 362.994L782.141 363.009L770.237 369.888C770.161 369.927 770.084 369.942 770.008 369.927C769.932 369.919 769.855 369.888 769.802 369.827L769.771 369.797C768.313 368.39 766.763 367.068 765.121 365.837C763.503 364.607 761.8 363.483 760.051 362.467C758.295 361.45 756.47 360.541 754.592 359.738C752.721 358.943 750.805 358.263 748.842 357.697C748.766 357.682 748.697 357.628 748.651 357.575C748.606 357.506 748.575 357.43 748.583 357.361V342.525C748.583 341.921 748.461 341.333 748.232 340.798C748.002 340.24 747.666 339.743 747.247 339.33C746.834 338.91 746.338 338.581 745.788 338.344C745.254 338.122 744.666 338 744.063 338H725.882C725.279 338 724.691 338.122 724.157 338.344C723.607 338.581 723.111 338.91 722.683 339.33C721.874 340.148 721.362 341.287 721.362 342.525V357.361C721.362 357.445 721.332 357.521 721.286 357.583C721.24 357.636 721.171 357.69 721.087 357.705L721.034 357.728C719.056 358.293 717.147 358.974 715.315 359.753ZM721.706 360.311C719.896 360.846 718.109 361.481 716.369 362.222C714.597 362.979 712.879 363.835 711.237 364.79C709.558 365.753 707.947 366.831 706.404 367.993C704.854 369.17 703.373 370.424 701.991 371.769C701.495 372.235 700.884 372.518 700.25 372.594C699.609 372.671 698.944 372.541 698.364 372.204C694.111 369.751 689.629 367.313 685.468 364.752C685.261 364.637 685.048 364.576 684.842 364.553C684.605 364.53 684.36 364.546 684.131 364.607C683.895 364.668 683.666 364.783 683.475 364.928C683.284 365.073 683.131 365.249 683.001 365.463C679.901 370.164 676.794 376.233 673.915 381.216C673.793 381.43 673.717 381.659 673.694 381.889C673.656 382.126 673.678 382.378 673.739 382.622C673.801 382.859 673.915 383.073 674.06 383.272C674.205 383.456 674.381 383.616 674.595 383.746C678.428 386.276 683.353 388.814 687.415 391.16C688.01 391.504 688.445 392.016 688.697 392.597C688.781 392.804 688.843 393.01 688.881 393.232L689.148 393.316L688.858 394.516C688.621 395.456 688.415 396.396 688.247 397.336C688.079 398.246 687.934 399.201 687.812 400.195C687.697 401.166 687.606 402.129 687.552 403.084C687.491 404.009 687.468 404.987 687.468 406.004C687.468 407.013 687.491 407.983 687.552 408.908C687.606 409.871 687.697 410.834 687.812 411.805C687.934 412.799 688.079 413.754 688.247 414.664C688.415 415.596 688.621 416.544 688.858 417.484C689.026 418.187 688.942 418.883 688.659 419.487C688.384 420.091 687.903 420.595 687.293 420.909L675.931 427.474L675.939 427.482L674.595 428.254C674.381 428.384 674.205 428.537 674.06 428.728C673.915 428.919 673.801 429.141 673.739 429.378C673.678 429.622 673.656 429.874 673.694 430.111C673.717 430.341 673.793 430.57 673.915 430.784L682.322 445.36H682.329L683.001 446.537C683.131 446.743 683.284 446.935 683.475 447.064C683.666 447.217 683.895 447.324 684.131 447.393C684.368 447.454 684.62 447.47 684.857 447.447C685.086 447.408 685.307 447.34 685.521 447.21C689.591 444.657 694.172 442.219 698.372 439.788C698.967 439.452 699.624 439.329 700.25 439.406C700.891 439.482 701.502 439.773 701.983 440.224L701.991 440.231C703.373 441.576 704.854 442.83 706.404 444.007C707.947 445.169 709.558 446.239 711.237 447.21C712.894 448.165 714.612 449.029 716.399 449.793C718.148 450.535 719.965 451.184 721.836 451.719C722.492 451.903 723.042 452.3 723.424 452.812C723.821 453.324 724.042 453.967 724.042 454.639L724.05 469.475C724.05 469.72 724.096 469.957 724.187 470.171C724.271 470.392 724.416 470.599 724.592 470.767C724.76 470.943 724.958 471.08 725.188 471.18C725.401 471.264 725.63 471.31 725.882 471.31H744.063C744.314 471.31 744.551 471.264 744.757 471.18C744.979 471.08 745.185 470.943 745.361 470.774C745.529 470.599 745.666 470.392 745.765 470.171C745.849 469.957 745.895 469.72 745.895 469.475V454.639C745.895 453.936 746.147 453.279 746.552 452.759C746.972 452.231 747.567 451.842 748.232 451.681C750.049 451.154 751.828 450.519 753.576 449.77C755.34 449.021 757.058 448.165 758.707 447.21C760.38 446.239 761.991 445.169 763.533 444.007C765.091 442.83 766.564 441.576 767.954 440.231C768.466 439.734 769.115 439.459 769.779 439.398C770.458 439.337 771.146 439.505 771.734 439.887L784.416 447.217C784.622 447.34 784.851 447.416 785.08 447.447C785.325 447.47 785.569 447.454 785.813 447.393C786.05 447.324 786.279 447.217 786.47 447.064C786.653 446.935 786.814 446.751 786.936 446.537C789.952 441.278 793.014 436.035 796.03 430.776C796.144 430.57 796.221 430.341 796.251 430.111C796.282 429.867 796.266 429.622 796.198 429.378C796.137 429.141 796.03 428.919 795.885 428.72C795.74 428.537 795.564 428.376 795.365 428.254L782.53 420.84C781.935 420.496 781.492 419.984 781.247 419.403C781.179 419.242 781.125 419.082 781.087 418.914L780.751 418.845L781.087 417.484C781.316 416.544 781.522 415.604 781.698 414.664C781.866 413.754 782.011 412.799 782.133 411.805C782.248 410.834 782.339 409.871 782.393 408.916C782.454 407.983 782.477 407.013 782.477 406.004C782.477 404.987 782.454 404.009 782.393 403.084C782.339 402.129 782.248 401.166 782.133 400.202C782.011 399.194 781.858 398.23 781.698 397.328C781.522 396.396 781.324 395.448 781.087 394.516C780.911 393.813 780.995 393.109 781.286 392.505C781.56 391.909 782.042 391.397 782.645 391.091L795.35 383.746C795.564 383.624 795.74 383.463 795.885 383.272C796.03 383.089 796.137 382.867 796.198 382.622C796.266 382.378 796.282 382.126 796.251 381.889C796.221 381.659 796.144 381.43 796.03 381.224C792.93 376.599 789.814 370.424 786.936 365.463C786.814 365.249 786.653 365.073 786.47 364.928C786.279 364.783 786.05 364.668 785.813 364.607C785.569 364.546 785.325 364.53 785.088 364.553C784.867 364.584 784.63 364.66 784.416 364.783L771.581 372.204C770.97 372.556 770.298 372.678 769.649 372.587C769.008 372.503 768.389 372.204 767.916 371.731C766.519 370.385 765.053 369.132 763.525 367.978C761.998 366.823 760.387 365.761 758.707 364.79C757.051 363.827 755.325 362.971 753.546 362.207C751.79 361.465 749.972 360.816 748.109 360.281C747.445 360.09 746.903 359.7 746.521 359.188C746.124 358.676 745.903 358.026 745.903 357.361L745.895 342.525C745.895 342.28 745.849 342.043 745.765 341.829C745.666 341.608 745.529 341.401 745.353 341.233C745.185 341.057 744.979 340.92 744.757 340.828C744.551 340.736 744.314 340.683 744.063 340.683H725.882C725.63 340.683 725.401 340.736 725.188 340.828C724.958 340.92 724.76 341.057 724.584 341.226C724.256 341.562 724.05 342.028 724.05 342.525V357.361C724.05 358.064 723.798 358.721 723.393 359.241C722.966 359.769 722.378 360.158 721.706 360.311ZM724.913 381.667C721.698 382.997 718.812 384.954 716.376 387.384C713.948 389.815 711.993 392.719 710.665 395.93C709.382 399.025 708.672 402.427 708.672 406.004C708.672 409.573 709.382 412.975 710.665 416.07C711.993 419.281 713.948 422.177 716.376 424.616C718.812 427.046 721.698 429.003 724.913 430.333C728.005 431.617 731.403 432.328 734.969 432.328C738.542 432.328 741.94 431.617 745.025 430.333C748.239 429.003 751.141 427.046 753.569 424.616C755.997 422.177 757.952 419.281 759.28 416.07C760.563 412.975 761.273 409.573 761.273 406.004C761.273 402.427 760.563 399.025 759.28 395.93C757.952 392.719 755.997 389.815 753.569 387.384C751.141 384.954 748.239 382.997 745.032 381.667C741.94 380.383 738.542 379.672 734.969 379.672C731.403 379.672 728.005 380.383 724.913 381.667ZM714.475 385.489C717.14 382.814 720.339 380.666 723.897 379.191C727.31 377.769 731.059 376.989 734.969 376.989C738.886 376.989 742.627 377.769 746.048 379.191C749.606 380.666 752.798 382.814 755.462 385.489C758.135 388.156 760.28 391.351 761.754 394.913C763.174 398.337 763.953 402.075 763.953 406.004C763.953 409.917 763.174 413.67 761.754 417.087C760.28 420.649 758.135 423.844 755.462 426.511C752.798 429.179 749.614 431.334 746.055 432.809C742.635 434.231 738.893 435.011 734.969 435.011C731.059 435.011 727.31 434.231 723.897 432.809C720.339 431.342 717.14 429.179 714.475 426.511C711.818 423.844 709.665 420.649 708.183 417.087C706.771 413.67 705.984 409.917 705.984 406.004C705.984 402.075 706.771 398.337 708.183 394.913C709.665 391.351 711.818 388.156 714.475 385.489Z" fill="#F2F3F5"/>
</svg>
